<svg width="30" height="24" viewBox="0 0 30 24" fill="none" xmlns="http://www.w3.org/2000/svg">
<g clip-path="url(#clip0_93_7)">
<path d="M30 2.8933C30 8.96595 30 15.0377 30 21.1103C29.985 21.1342 29.9625 21.1562 29.9578 21.1819C29.596 22.9521 28.2891 23.9982 26.4151 23.9982C18.8104 24.0009 11.2066 24.0009 3.60179 23.9945C3.24368 23.9945 2.87713 23.9624 2.52933 23.8836C1.35936 23.6186 -0.00746904 22.4204 3.07268e-05 20.564C0.0215926 15.4383 0.00753049 10.3118 0.00753049 5.18521C0.00753049 4.52698 0.00190567 3.86782 0.0131553 3.20958C0.0234675 2.66686 0.159401 2.14889 0.453767 1.68592C1.16999 0.557383 2.20121 -0.0018443 3.57273 -1.07649e-05C11.1962 0.00732336 18.8207 0.0036563 26.4451 0.00457306C26.5623 0.00457306 26.6795 0.00915689 26.7958 0.0174078C28.2123 0.112751 29.1666 0.851664 29.7507 2.08013C29.8716 2.33407 29.9185 2.62194 30 2.8933V2.8933ZM16.3739 2.66686C13.0543 2.66686 9.73473 2.66686 6.41608 2.66686C5.68298 2.66686 5.45892 2.8878 5.45892 3.60929C5.45892 9.20431 5.45892 14.7984 5.45892 20.3934C5.45892 21.1149 5.68298 21.3359 6.41702 21.3359C13.0459 21.3359 19.6747 21.3359 26.3036 21.3359C27.0498 21.3359 27.2692 21.125 27.2692 20.4072C27.2692 14.803 27.2692 9.19881 27.2692 3.59463C27.2692 2.8768 27.0498 2.66686 26.3026 2.66686C22.9934 2.66686 19.6832 2.66686 16.3739 2.66686V2.66686ZM2.72901 13.3279C3.46867 13.3298 4.09397 12.7265 4.09865 12.0069C4.1024 11.29 3.47805 10.6785 2.74026 10.6766C2.00153 10.6739 1.37624 11.2771 1.37155 11.9968C1.36686 12.7128 1.99309 13.3261 2.72995 13.3279H2.72901Z" fill="#9DC9C9"/>
</g>
<defs>
<clipPath id="clip0_93_7">
<rect width="30" height="24" fill="white"/>
</clipPath>
</defs>
</svg>
