<svg width="17" height="19" viewBox="0 0 17 19" fill="none" xmlns="http://www.w3.org/2000/svg">
<g clip-path="url(#clip0_39_511)">
<path d="M0.41836 19C0.0828606 18.8478 -0.0064378 18.5861 0.000625352 18.2341C0.0677253 14.8247 2.71338 11.7942 6.12993 11.2439C6.55824 11.1788 6.99064 11.1432 7.424 11.1373C8.18531 11.1204 8.94762 11.111 9.70792 11.1373C12.6341 11.2364 14.7742 12.6008 16.1717 15.1034C16.7156 16.078 16.9507 17.1419 16.9991 18.2504C17.0142 18.5975 16.9073 18.8493 16.5819 18.998L0.41836 19ZM1.12468 17.8766H15.8312C15.8256 17.7988 15.8246 17.7314 15.816 17.6654C15.7126 16.8985 15.4942 16.1653 15.1062 15.491C14.023 13.6072 12.4 12.4922 10.1963 12.2869C9.31642 12.2051 8.42394 12.2508 7.53701 12.2488C7.22253 12.2404 6.90787 12.257 6.5961 12.2983C4.04226 12.6989 2.33298 14.1148 1.45967 16.4964C1.29974 16.9302 1.23617 17.4002 1.12316 17.8766H1.12468Z" fill="#9DC9C9"/>
<path d="M13.598 5.00866C13.5982 5.99986 13.2992 6.96884 12.7388 7.79297C12.1783 8.61711 11.3817 9.25936 10.4497 9.63845C9.51772 10.0175 8.49222 10.1164 7.503 9.92259C6.51378 9.72876 5.60531 9.25092 4.89255 8.54955C4.1798 7.84819 3.69479 6.95482 3.49891 5.98249C3.30303 5.01016 3.40508 4.00259 3.79215 3.08727C4.17922 2.17196 4.83391 1.39005 5.67337 0.840492C6.51283 0.290936 7.49932 -0.00156313 8.50801 6.28257e-06C9.8578 0.0044586 11.1509 0.533803 12.1047 1.47234C13.0585 2.41089 13.5954 3.68229 13.598 5.00866ZM4.53499 4.99577C4.5322 5.76661 4.76216 6.52095 5.19577 7.16332C5.62939 7.80569 6.24717 8.30723 6.97095 8.60448C7.69473 8.90174 8.49197 8.98134 9.2618 8.83322C10.0316 8.68509 10.7395 8.31591 11.2957 7.77237C11.8519 7.22883 12.2316 6.53537 12.3866 5.77973C12.5417 5.02409 12.4652 4.24025 12.1667 3.52737C11.8683 2.81449 11.3614 2.20463 10.7101 1.77494C10.0588 1.34525 9.29246 1.11506 8.50801 1.11348C7.45806 1.1132 6.4507 1.52145 5.70619 2.24895C4.96168 2.97646 4.54059 3.96404 4.53499 4.99577Z" fill="#9DC9C9"/>
</g>
<defs>
<clipPath id="clip0_39_511">
<rect width="17" height="19" fill="white"/>
</clipPath>
</defs>
</svg>
