<svg width="17" height="17" viewBox="0 0 17 17" fill="none" xmlns="http://www.w3.org/2000/svg">
<path d="M0 8.99749C0 8.66555 0 8.3334 0 8.00146C0.00969043 7.95363 0.0249477 7.90621 0.0284528 7.85796C0.111337 6.67225 0.424936 5.54921 0.998733 4.5107C2.32117 2.11721 4.32894 0.650896 7.01897 0.13422C7.34308 0.0719552 7.67379 0.0439154 8.00162 0C8.33357 0 8.66572 0 8.99767 0C9.04035 0.00948407 9.08262 0.0245349 9.12571 0.0274213C10.3121 0.108242 11.4395 0.414 12.4753 0.993971C15.2684 2.55802 16.7915 4.94759 16.9847 8.14475C17.0859 9.82013 16.6857 11.4021 15.8026 12.8328C14.2107 15.412 11.8838 16.8072 8.85685 16.9856C7.32349 17.0759 5.86148 16.7423 4.51368 16.0007C2.11664 14.682 0.651527 12.6703 0.134223 9.9793C0.0719566 9.6554 0.0439162 9.3249 0 8.99749ZM10.4048 12.607C10.1502 12.6614 9.92136 12.7299 9.68775 12.7569C9.02654 12.833 8.73706 12.5404 8.85726 11.8908C8.95046 11.3869 9.08942 10.8912 9.21395 10.3935C9.38611 9.70406 9.64569 9.03708 9.68652 8.31423C9.72136 7.69776 9.4391 7.18501 8.87396 6.94914C8.5016 6.79368 8.11069 6.77389 7.71668 6.82317C7.17381 6.891 6.67444 7.10625 6.16951 7.30026C6.13611 7.31304 6.09013 7.33778 6.0825 7.36582C6.03425 7.5421 5.99529 7.72086 5.94787 7.92229C6.07405 7.88167 6.16827 7.85178 6.26229 7.82106C6.53589 7.73199 6.81341 7.70807 7.09628 7.76828C7.31999 7.8157 7.45421 7.92579 7.46493 8.15424C7.47751 8.42123 7.47483 8.69895 7.41524 8.95749C7.28164 9.53808 7.11278 10.1108 6.95114 10.6848C6.80578 11.2011 6.65898 11.7163 6.64145 12.2575C6.62269 12.8431 6.92021 13.3173 7.45524 13.5418C7.89812 13.7276 8.36759 13.7612 8.82242 13.6538C9.29251 13.5426 9.74404 13.3534 10.2028 13.195C10.2343 13.1841 10.2717 13.1499 10.2799 13.1194C10.3259 12.9501 10.3638 12.7788 10.4048 12.6068V12.607ZM9.27127 3.25468C9.11519 3.2854 8.95458 3.30149 8.80386 3.34932C8.04533 3.59013 7.71091 4.46906 8.14491 5.11521C8.46161 5.58673 8.93066 5.74858 9.48694 5.67869C10.1395 5.59663 10.6244 4.97068 10.5358 4.32185C10.4545 3.72744 9.93022 3.29118 9.27127 3.25468Z" fill="#244154"/>
</svg>
