<svg width="20" height="20" viewBox="0 0 20 20" fill="none" xmlns="http://www.w3.org/2000/svg">
<g clip-path="url(#clip0_39_516)">
<path d="M9.9879 19.998C15.511 20.0108 19.9818 15.5538 19.9994 10.0163C20.017 4.47869 15.5361 -0.00407219 9.99874 -0.00271797C7.36016 0.017519 4.83646 1.0793 2.97731 2.95136C1.11817 4.82343 0.0741854 7.35413 0.0727554 9.99224C0.0713254 12.6304 1.11256 15.1622 2.96968 17.0363C4.8268 18.9103 7.34934 19.9749 9.9879 19.998ZM1.6121 10.0149C1.59584 5.38716 5.32805 1.63809 9.97909 1.61438C14.599 1.58796 18.3576 5.32484 18.3874 9.97561C18.4165 14.6067 14.6606 18.3802 10.0082 18.3903C5.37684 18.3978 1.62904 14.6602 1.6121 10.0149Z" fill="#9DC9C9"/>
<path d="M9.97435 9.19181C8.72283 9.19181 7.47198 9.19181 6.22113 9.19181C5.69938 9.19181 5.34839 9.55967 5.37549 10.0562C5.38716 10.2565 5.47448 10.4449 5.61977 10.5832C5.76506 10.7216 5.95748 10.7996 6.15812 10.8015C6.48743 10.8116 6.81674 10.8015 7.14673 10.8015C9.34486 10.8015 11.5428 10.8015 13.7404 10.8015C14.2656 10.8015 14.6213 10.4742 14.6261 10.0007C14.6308 9.52715 14.2791 9.18774 13.7784 9.18774C12.5106 9.18978 11.2421 9.19181 9.97435 9.19181Z" fill="#E7A53B"/>
</g>
<defs>
<clipPath id="clip0_39_516">
<rect width="20" height="20" fill="white" transform="matrix(1 0 0 -1 0 20)"/>
</clipPath>
</defs>
</svg>
