<svg width="27" height="17" viewBox="0 0 27 17" fill="none" xmlns="http://www.w3.org/2000/svg">
<path d="M0 8.78387C0.337407 8.25373 0.654763 7.7082 1.01637 7.19485C3.13 4.20074 5.94679 2.20257 9.44186 1.20104C11.3501 0.653416 13.3013 0.506543 15.2746 0.746436C19.1907 1.22202 22.4521 2.97191 25.076 5.94014C25.8116 6.77241 26.4325 7.69212 26.969 8.66777C27.0119 8.7461 27.0098 8.89228 26.9656 8.97061C24.8215 12.7606 21.6922 15.3169 17.5196 16.4527C11.5631 18.0739 5.45451 16.0282 1.57433 11.173C0.990787 10.4421 0.522012 9.61825 0 8.83702C0 8.81954 0 8.80136 0 8.78387V8.78387ZM19.9609 8.80835C19.9423 5.21207 17.0363 2.29 13.5039 2.31448C9.97217 2.33896 7.11665 5.23585 7.10075 8.80975C7.08485 12.3795 10.0047 15.326 13.5447 15.3127C17.0874 15.2994 19.9796 12.3669 19.9609 8.80905V8.80835ZM6.93551 13.5915C4.94633 10.3974 4.94287 7.24381 6.91753 4.06716C4.9401 5.11835 3.11963 6.9025 2.00716 8.70764C1.97051 8.76639 1.98572 8.89787 2.0279 8.96012C2.29616 9.35667 2.56235 9.75603 2.85897 10.1302C3.97767 11.5437 5.32591 12.6851 6.93481 13.5915H6.93551ZM20.1912 4.05597C22.1181 7.2557 22.1154 10.4037 20.14 13.5712C20.1905 13.5495 20.2216 13.5391 20.2499 13.523C22.2059 12.3969 23.8024 10.8849 25.0338 8.9776C25.1147 8.85171 25.1078 8.76988 25.0289 8.64749C24.0921 7.18925 22.9229 5.95482 21.5311 4.9386C21.0997 4.62318 20.6392 4.34901 20.1919 4.05667L20.1912 4.05597Z" fill="#9DC9C9"/>
<path d="M13.6175 5.4832C12.8079 7.65133 14.8551 9.50682 16.8035 8.73329C17.0406 9.5271 16.3306 10.9546 15.3771 11.6015C14.1637 12.424 12.5506 12.3408 11.4181 11.3973C10.2994 10.465 9.91431 8.88995 10.4716 7.52544C10.9929 6.24764 12.3647 5.35801 13.6175 5.4839V5.4832Z" fill="#E7A53B"/>
</svg>
