<svg width="18" height="18" viewBox="0 0 18 18" fill="none" xmlns="http://www.w3.org/2000/svg">
<g clip-path="url(#clip0_39_519)">
<path d="M9.01636 -5.48892e-05C13.9808 0.00569224 18.0093 4.0548 17.9999 9.02607C17.991 13.9822 13.9426 18.0078 8.98343 17.9999C4.02422 17.9921 -0.0100327 13.9435 -0.000103782 8.9733C0.0103477 4.0198 4.05506 -0.00580202 9.01636 -5.48892e-05ZM8.99598 1.25386C4.72029 1.257 1.24623 4.73662 1.25198 9.01039C1.25773 13.2842 4.72708 16.7429 8.99441 16.7497C13.2617 16.7565 16.7473 13.2769 16.7478 9.00204C16.7483 4.72722 13.2701 1.24916 8.99598 1.25229V1.25386Z" fill="#9DC9C9"/>
<path d="M9.62628 7.05903C9.62628 7.70375 9.62994 8.349 9.62314 8.99215C9.61689 9.04842 9.62807 9.10526 9.65517 9.15497C9.68227 9.20468 9.72399 9.24487 9.77469 9.27011C10.6066 9.76906 11.4323 10.2779 12.2621 10.78C12.4623 10.9007 12.6107 11.0533 12.6363 11.2952C12.6536 11.4091 12.6371 11.5256 12.5889 11.6302C12.5407 11.7349 12.4629 11.8231 12.3651 11.884C12.2661 11.9541 12.1482 11.9925 12.0269 11.9943C11.9057 11.996 11.7867 11.9611 11.6857 11.8939C11.1005 11.5414 10.5164 11.1865 9.93355 10.8291C9.54423 10.5925 9.15858 10.3495 8.7656 10.1191C8.49804 9.96238 8.3721 9.74712 8.37367 9.43259C8.38047 7.9932 8.37367 6.55328 8.37733 5.11336C8.37733 4.76488 8.60883 4.4979 8.92864 4.46237C9.07934 4.4442 9.2315 4.48161 9.35657 4.56761C9.48164 4.6536 9.57104 4.78226 9.60799 4.92946C9.62475 5.0056 9.63212 5.0835 9.62994 5.16143C9.62994 5.79466 9.62872 6.42719 9.62628 7.05903Z" fill="#E7A53B"/>
</g>
<defs>
<clipPath id="clip0_39_519">
<rect width="18" height="18" fill="white"/>
</clipPath>
</defs>
</svg>
