<svg width="20" height="33" viewBox="0 0 20 33" fill="none" xmlns="http://www.w3.org/2000/svg">
<g clip-path="url(#clip0_39_536)">
<path d="M20 16.5039C20 21.1855 20 25.867 20 30.5486C20 31.3412 19.7522 32.0241 19.0802 32.5275C18.6614 32.8404 18.1432 33.0058 17.6123 32.9961C12.5406 32.9961 7.46797 32.9961 2.39446 32.9961C1.00196 32.9961 0.0417559 32.0473 -0.00268555 30.688C-0.00268555 30.6235 -0.00268555 30.5589 -0.00268555 30.4944C-0.00268555 21.1639 -0.00268555 11.8335 -0.00268555 2.503C-0.00268555 1.5116 0.340725 0.703511 1.30766 0.258158C1.65011 0.102424 2.02354 0.01921 2.40254 0.0141803C7.46348 -0.00131022 12.5235 -0.00388378 17.5827 0.00644324C19.0304 0.00644324 19.9946 0.987512 19.996 2.42813C20.0005 7.11918 20.0018 11.8111 20 16.5039ZM1.64569 3.55507V28.8563H18.3449V3.55507H1.64569ZM8.8479 30.759C8.84319 31.0517 8.95927 31.3343 9.17088 31.5454C9.38249 31.7564 9.6725 31.8788 9.97779 31.886C10.2828 31.8887 10.5767 31.7762 10.7957 31.5728C11.0148 31.3693 11.1414 31.0913 11.1481 30.799C11.1526 30.6516 11.1263 30.5048 11.0709 30.3672C11.0154 30.2296 10.9319 30.104 10.8252 29.9977C10.7184 29.8914 10.5907 29.8066 10.4493 29.7483C10.308 29.6899 10.1559 29.6592 10.002 29.6579C9.6979 29.6589 9.40646 29.7748 9.1909 29.9805C8.97535 30.1861 8.85307 30.4649 8.85059 30.7564L8.8479 30.759ZM9.98183 2.14542H12.2712C12.4759 2.14542 12.7157 2.16349 12.721 1.88725C12.7264 1.611 12.5015 1.611 12.2874 1.61229H7.71666C7.50253 1.61229 7.27763 1.61229 7.28302 1.88725C7.28841 2.1622 7.52947 2.14542 7.73417 2.14542H9.98183Z" fill="#9DC9C9"/>
</g>
<defs>
<clipPath id="clip0_39_536">
<rect width="20" height="33" fill="white"/>
</clipPath>
</defs>
</svg>
