<svg width="19" height="20" viewBox="0 0 19 20" fill="none" xmlns="http://www.w3.org/2000/svg">
<g clip-path="url(#clip0_39_504)">
<path d="M17.4555 2.81876e-06C17.6662 0.10127 17.7502 0.26907 17.7502 0.501446C17.7443 1.19124 17.7418 1.88151 17.7502 2.5713C17.7551 2.99007 17.4064 3.10944 17.1913 3.00181C17.015 2.91522 16.9655 2.75721 16.9645 2.5806C16.9645 2.24891 16.9645 1.91673 16.9645 1.58505V1.34925C16.8795 1.42703 16.828 1.47106 16.7798 1.51852L12.9249 5.35493C12.6175 5.66117 12.4486 5.66019 12.1368 5.34954L10.7588 3.97584C10.7198 4.04898 10.674 4.11827 10.6218 4.18277C8.47026 6.32911 6.31774 8.47398 4.16423 10.6174C4.10183 10.6838 4.03381 10.7446 3.96093 10.7994C3.88804 10.8503 3.79958 10.8742 3.71087 10.867C3.62215 10.8598 3.53876 10.8219 3.47512 10.7599C3.41149 10.6979 3.37161 10.6156 3.3624 10.5274C3.35319 10.4393 3.37522 10.3506 3.42468 10.2769C3.46918 10.2128 3.52019 10.1535 3.57691 10.0998C5.85351 7.83018 8.13061 5.56105 10.4082 3.2924C10.7087 2.993 10.8801 2.99496 11.1851 3.29827L12.4967 4.60496L16.3364 0.780295H15.0881C14.791 0.780295 14.6461 0.702019 14.5793 0.509759C14.5126 0.317498 14.5838 0.174651 14.8283 -0.000976562L17.4555 2.81876e-06Z" fill="#E7A53B"/>
<path d="M1.29354 19.2178V18.9864C1.29354 17.9317 1.31171 16.8769 1.28765 15.8231C1.27095 15.0854 1.80622 14.6099 2.48488 14.6407C3.03929 14.6657 3.59568 14.6451 4.15108 14.6461C4.89112 14.6461 5.31688 15.0673 5.31982 15.8085C5.32326 16.8564 5.31982 17.9047 5.31982 18.9526V19.1997H7.49969V18.9771C7.49969 16.8226 7.49969 14.6681 7.49969 12.5136C7.49969 11.9266 7.80906 11.5088 8.33451 11.3924C8.44338 11.3715 8.55416 11.3622 8.665 11.3645C9.22727 11.362 9.78905 11.3645 10.3508 11.3645C11.1056 11.3645 11.5324 11.7876 11.5328 12.5352C11.5328 14.6769 11.5328 16.8185 11.5328 18.96V19.2046H13.7196V18.96C13.7196 14.9435 13.7188 10.9273 13.7171 6.91116C13.7171 6.43173 13.8738 6.05063 14.3182 5.84223C14.4923 5.77043 14.6793 5.73465 14.8677 5.73705C15.4359 5.72384 16.0045 5.73069 16.5727 5.73264C17.327 5.73264 17.7434 6.15141 17.7449 6.90676C17.7468 7.90279 17.7468 8.89883 17.7449 9.89487V19.2163C18.0174 19.2163 18.2772 19.1992 18.5331 19.2237C18.672 19.2349 18.8034 19.2911 18.9072 19.3836C19.087 19.571 18.9834 19.8851 18.7314 19.9648C18.6306 19.9907 18.5265 20.0014 18.4226 19.9966C12.4698 19.9966 6.51722 19.9966 0.56479 19.9966C0.4993 19.9989 0.433732 19.9978 0.368362 19.9932C0.145907 19.9692 5.97101e-05 19.8181 -0.00288671 19.6121C-0.00487064 19.5614 0.0034429 19.5108 0.0215552 19.4634C0.0396674 19.416 0.0672053 19.3728 0.102517 19.3362C0.137829 19.2997 0.180186 19.2706 0.22705 19.2507C0.273914 19.2309 0.324317 19.2207 0.375237 19.2207C0.603585 19.208 0.832424 19.2168 1.06274 19.2158L1.29354 19.2178ZM16.9631 19.209V16.8324C16.9631 13.5328 16.9631 10.2332 16.9631 6.93366C16.9631 6.57214 16.9032 6.51343 16.5408 6.51294H14.933C14.5593 6.51294 14.5063 6.56773 14.5063 6.94589C14.5063 10.9617 14.5063 14.9773 14.5063 18.9928V19.209H16.9631ZM10.7442 19.209C10.7466 19.1635 10.7506 19.1258 10.7506 19.0882C10.7506 16.8896 10.7506 14.6913 10.7506 12.4931C10.7506 12.246 10.6524 12.1506 10.4068 12.1482C9.84553 12.1482 9.28423 12.1482 8.72245 12.1482C8.36004 12.1482 8.28589 12.2216 8.28589 12.5797C8.28589 14.7195 8.28589 16.8593 8.28589 18.9991V19.2095L10.7442 19.209ZM2.07827 19.1997H4.53362C4.53362 18.0256 4.53657 16.8686 4.53116 15.7106C4.53116 15.5061 4.42166 15.4264 4.19184 15.4259C3.61728 15.424 3.04257 15.424 2.46769 15.4259C2.15439 15.4259 2.07876 15.5022 2.07876 15.8173C2.07876 16.7667 2.07876 17.7166 2.07876 18.6669L2.07827 19.1997Z" fill="#9DC9C9"/>
<path d="M2.41611 12.2309C2.36555 12.2301 2.31566 12.2192 2.26933 12.1991C2.223 12.1789 2.18115 12.1498 2.14621 12.1134C2.11127 12.077 2.08392 12.034 2.06577 11.987C2.04761 11.94 2.039 11.8899 2.04044 11.8395C2.04263 11.7376 2.08514 11.6407 2.15872 11.5699C2.2323 11.499 2.33099 11.46 2.43329 11.4613C2.53559 11.465 2.63241 11.5084 2.70312 11.5821C2.77384 11.6558 2.81287 11.7542 2.81191 11.8561C2.8087 11.9579 2.76535 12.0543 2.69125 12.1245C2.61716 12.1946 2.5183 12.2329 2.41611 12.2309Z" fill="#E7A53B"/>
</g>
<defs>
<clipPath id="clip0_39_504">
<rect width="19" height="20" fill="white"/>
</clipPath>
</defs>
</svg>
