<svg width="22" height="22" viewBox="0 0 22 22" fill="none" xmlns="http://www.w3.org/2000/svg">
<g clip-path="url(#clip0_39_469)">
<path d="M10.3092 0H11.6873C11.7487 0.0161528 11.811 0.0284139 11.8739 0.0367227C13.4593 0.158387 14.9563 0.590526 16.3304 1.38708C19.3341 3.12883 21.1975 5.69641 21.8372 9.12367C21.9101 9.51621 21.9486 9.91448 22.0031 10.3099V11.6872C21.9905 11.7446 21.9755 11.7974 21.9664 11.8537C21.8779 12.4178 21.8257 12.9905 21.6982 13.5461C20.3138 19.5719 13.9606 23.3021 8.01172 21.5805C2.30974 19.9346 -1.04139 14.2296 0.295959 8.44304C1.26524 4.24792 4.84491 0.882061 9.10274 0.167571C9.50182 0.099852 9.90606 0.0550933 10.3092 0ZM20.7111 10.9882C20.7019 5.63271 16.3327 1.27633 10.9827 1.28952C5.63274 1.30272 1.28534 5.65107 1.28304 10.9957C1.28074 16.3403 5.64709 20.7093 11.0005 20.7059C16.354 20.7024 20.7197 16.3357 20.7111 10.9882Z" fill="#9DC9C9"/>
<path d="M2.61548 10.994C2.61548 6.37994 6.37775 2.62269 10.9945 2.62097C15.6112 2.61925 19.389 6.39257 19.378 11.0106C19.3671 15.6287 15.602 19.3802 10.9881 19.3739C6.37431 19.3676 2.61318 15.6058 2.61548 10.994ZM11.0048 18.085C14.9152 18.0798 18.0981 14.8884 18.0884 10.9831C18.0786 7.07779 14.9014 3.91395 10.9991 3.90936C7.09668 3.90476 3.90288 7.09271 3.9046 10.9997C3.90632 14.9068 7.09725 18.089 11.0048 18.085Z" fill="#9DC9C9"/>
<path d="M10.3526 15.4525C9.77264 15.3452 9.2524 15.1535 8.79762 14.8126C8.24235 14.3954 7.87887 13.8571 7.78469 13.1569C7.71981 12.6754 7.95294 12.3202 8.35489 12.2852C8.69425 12.2553 9.02673 12.4786 9.04683 12.8183C9.09104 13.5644 9.59291 13.8691 10.1999 14.0912C10.2389 14.1056 10.2814 14.1124 10.34 14.1274C10.3446 14.07 10.3514 14.0258 10.3514 13.9799C10.3514 13.243 10.3514 12.5056 10.3549 11.7687C10.3549 11.6298 10.321 11.5759 10.1746 11.5466C9.58704 11.4383 9.03989 11.1727 8.59147 10.7782C7.47921 9.78648 7.5085 8.23182 8.65578 7.27744C9.0842 6.92734 9.59052 6.68526 10.1321 6.57156L10.352 6.5222C10.352 6.30126 10.352 6.0872 10.352 5.87314C10.3572 5.47142 10.6265 5.19136 10.9992 5.19251C11.3718 5.19366 11.636 5.47544 11.6406 5.88117C11.6406 6.08835 11.6406 6.29552 11.6406 6.51704C11.8289 6.56697 12.0167 6.60542 12.1964 6.66567C13.0778 6.9618 13.779 7.46912 14.0982 8.38103C14.1695 8.59794 14.2082 8.82422 14.2131 9.05248C14.2171 9.21931 14.1554 9.38104 14.0412 9.50279C13.927 9.62453 13.7695 9.69654 13.6027 9.70327C13.4363 9.70749 13.2746 9.64847 13.1501 9.53811C13.0256 9.42776 12.9476 9.27429 12.932 9.10872C12.8636 8.46711 12.3227 7.94373 11.6486 7.87314V10.369C11.9415 10.4637 12.232 10.5411 12.5099 10.6508C13.0141 10.8446 13.4523 11.1783 13.7732 11.6126C14.5346 12.6456 14.2935 14.0011 13.2042 14.8074C12.7888 15.1152 12.3083 15.3237 11.7996 15.4169C11.6744 15.4404 11.6308 15.4858 11.6377 15.6109C11.6469 15.7893 11.644 15.969 11.6377 16.1475C11.6262 16.5153 11.3506 16.7931 10.9997 16.7965C10.6397 16.8 10.3583 16.517 10.3503 16.1377C10.3486 15.9162 10.3526 15.6947 10.3526 15.4525ZM10.3446 7.86395C9.91906 7.9443 9.5217 8.175 9.28685 8.46768C8.994 8.83325 8.98481 9.26023 9.27307 9.62752C9.5441 9.97185 9.91676 10.1532 10.3446 10.2651V7.86395ZM11.6521 14.1291C12.0666 14.0218 12.4198 13.8496 12.6856 13.5334C12.9728 13.196 13.0112 12.7988 12.7821 12.443C12.5185 12.0378 12.1183 11.837 11.6492 11.7142L11.6521 14.1291Z" fill="#E7A53B"/>
</g>
<defs>
<clipPath id="clip0_39_469">
<rect width="22" height="22" fill="white"/>
</clipPath>
</defs>
</svg>
