<svg width="344" height="585" viewBox="0 0 344 585" fill="none" xmlns="http://www.w3.org/2000/svg">
<g style="mix-blend-mode:multiply">
<g style="mix-blend-mode:multiply">
<path d="M119.885 383.897C119.428 384.338 118.715 384.703 118.551 385.243C116.273 392.442 111.192 398.018 107.495 404.38C103.973 410.454 100.08 416.318 96.8099 422.527C93.5184 428.763 89.7894 434.765 86.6855 441.083C85.2705 443.951 82.9293 446.386 82.6842 450.064C82.5401 452.202 80.2851 454.246 78.8828 456.264C77.8692 457.719 76.9924 458.885 76.9157 461.028C76.7992 464.396 74.3151 466.801 71.4702 467.903C70.5252 470.824 69.68 473.434 68.7839 476.214C67.9428 476.076 67.3402 475.985 66.6523 475.867C66.4948 476.175 66.3167 476.501 66.1481 476.828C65.3467 478.425 64.555 480.022 63.7632 481.62C63.3105 482.535 62.8483 483.45 62.4609 484.4C62.1685 485.104 62.2139 486.22 61.7176 486.533C57.5257 489.154 58.1225 493.899 57.2609 497.678C56.8112 499.629 59.2114 502.559 60.8837 504.586C63.7558 508.082 67.1098 511.197 70.1764 514.542C71.4409 515.92 72.488 517.495 73.6294 518.971L73.5318 518.983C73.5605 517.911 73.7164 516.819 73.5795 515.764C73.1954 512.902 72.7131 510.061 72.2212 507.22C71.919 505.505 71.5178 503.822 71.1662 502.122L70.9562 504.236L71.0538 504.224C71.0933 503.54 71.1335 502.846 71.173 502.162C68.5203 495.614 70.3558 489.051 71.3445 482.562C71.6369 480.648 73.3537 478.962 74.4019 477.16C80.4415 466.729 86.5183 456.319 92.483 445.853C97.8837 436.373 103.09 426.771 108.5 417.291C114.241 407.255 120.195 397.34 125.918 387.282C132.083 376.444 138.035 365.483 144.155 354.613C148.49 346.903 152.956 339.262 157.337 331.585C160.756 325.599 164.137 319.602 167.545 313.616C172.248 305.372 176.988 297.14 181.654 288.874C184.911 283.109 187.808 277.125 191.352 271.536C196.151 263.966 198.266 255.004 203.919 247.922C205.141 246.394 205.013 245.088 202.945 243.72C210.832 237.998 213.995 229.101 218.745 221.277C220.149 218.969 221.579 216.836 223.688 214.937C227.391 211.584 230.205 207.413 228.298 201.393C231.185 202.394 233.474 202.84 234.45 199.755C233.876 197.112 235.742 195.63 237.352 194.217C238.786 192.975 240.6 193.841 240.696 195.725C240.743 196.686 240.295 197.679 239.941 199.241C237.469 196.625 235.782 197.626 234.342 199.767C235.16 200.494 235.988 201.221 237.379 202.453C239.085 202.266 241.443 202.019 243.792 201.762C240.499 197.936 243.924 195.222 245.275 191.758C246.263 192.681 246.978 193.351 247.586 193.917C252.182 192.535 257.617 193.468 260.224 188.547L264.37 191.68L263.409 194.688C265.014 193.603 265.929 192.992 266.793 192.406C266.501 190.014 265.437 187.722 267.942 186.238C268.048 187.455 267.944 188.637 268.285 189.678C269.552 193.571 268.13 194.253 265.507 195.496C262.793 196.791 259.564 196.917 257.267 199.277C256.964 199.584 256.047 199.296 255.728 199.292C253.998 198.336 254.827 195.144 251.944 195.837C251.979 197.107 252.018 198.31 252.075 200.607L246.902 196.694L243.694 201.775C246.81 201.747 249.933 201.614 253.05 201.703C260.067 201.897 265.28 197.705 270.745 194.335C275.036 191.682 278.901 188.361 282.865 185.414C282.93 183.155 282.99 181.244 283.075 178.318C285.591 179.911 287.476 181.131 289.373 182.312C290.558 183.046 291.694 184.056 293.005 184.392C297.744 185.584 299.227 189.445 300.716 193.345C300.781 193.514 300.538 193.806 300.306 194.341C296.537 193.499 294.076 190.468 290.964 188.57C289.944 187.955 288.914 187.349 287.393 186.446L287.131 183.37C284.215 184.379 283.493 185.421 284.304 187.724C288.571 199.796 288.496 212.533 290.152 225.008C290.65 228.711 291.751 232.351 292.768 235.965C293.716 239.323 294.93 242.613 296.006 245.941C296.292 246.804 296.388 247.759 296.795 248.543C301.015 256.703 305.088 264.881 310.632 272.362C315.013 278.28 320.541 282.354 326.101 286.798C329.888 289.818 334.061 291.763 338.292 293.441C342.56 295.132 347.339 295.775 351.966 296.253C357.86 296.861 364.017 297.845 369.703 296.764C374.282 295.893 379.32 296.972 383.549 294.228C383.853 294.037 384.31 294.002 384.685 294.029C390.984 294.385 396.953 292.463 403.031 291.323C407.589 290.47 412.225 290.01 416.777 289.109C421.682 288.126 426.489 286.508 431.416 285.769C435.501 285.163 438.941 282.914 442.659 281.914C450.183 279.891 456.03 275.493 462.105 271.169C463.358 270.282 465.006 269.955 466.267 269.088C468.069 267.834 469.668 266.304 471.383 264.918C472.677 263.869 473.98 262.831 475.317 261.844C475.838 261.455 476.563 261.324 477.011 260.882C480.143 257.807 483.476 254.893 486.252 251.522C490.605 246.252 494.575 240.665 498.7 235.214C498.935 234.902 499.227 234.604 499.368 234.256C501.071 229.811 503.534 225.673 505.299 221.311C507.992 214.654 510.503 207.83 511.639 200.645C511.695 200.262 511.86 199.858 511.809 199.486C510.993 193.496 510.214 187.509 509.261 181.539C508.942 179.513 508.085 177.584 507.61 175.576C506.742 171.914 504.186 169.815 500.969 169.903C499.855 169.929 498.103 169.551 497.731 168.809C496.894 167.123 497.571 165.517 499.822 164.731C500.195 165.067 500.68 165.451 501.112 165.888C501.563 166.346 501.952 166.848 502.642 167.207C502.394 164.742 501.92 162.453 500.349 160.366C498.416 157.799 496.699 155.053 495.071 152.275C492.908 148.598 491.008 144.765 488.794 141.123C487.938 139.716 486.473 138.702 485.407 137.396C484.473 136.255 483.378 135.083 482.933 133.735C481.632 129.771 479.05 127.351 475.078 126.378C470.383 125.237 466.887 122.345 463.841 118.72L471.959 122.816C472.462 122.678 472.966 122.54 473.469 122.402C473.029 121.79 472.718 121.003 472.127 120.612C470.208 119.332 468.293 117.453 466.195 117.177C462.861 116.743 460.153 116.074 458.618 112.81C458.316 112.179 457.612 111.741 457.339 110.831L463.428 113.427L464.114 112.634L460.702 107.909C456.703 108.376 453.632 107.256 451.245 104.539L451.594 103.587L455.466 105.143C454.523 101.176 429.069 78.7462 420.818 74.0698L417.462 75.8312L418.194 77.8868L413.737 76.9374C413.524 76.9414 413.311 76.9454 413.485 76.9386C413.324 76.8883 413.542 76.9524 413.759 77.0261C415.035 76.634 416.311 76.242 417.586 75.8499C416.127 75.2999 414.621 74.853 413.23 74.1627C412.474 73.7891 411.9 73.0318 411.246 72.4429L411.774 71.4167L418.551 73.0553L419.005 72.3913C416.501 70.4987 414.118 68.4116 411.462 66.7403C406.318 63.5161 400.976 60.6067 395.83 57.4018C393.109 55.7064 390.637 53.6322 388.024 51.7801C377.128 44.0787 365.403 37.7011 354.092 30.6568C347.456 26.5223 340.374 24.0199 332.999 22.0866C327.229 20.5687 321.31 19.6304 315.323 21.1253C314.693 21.2832 314.002 21.485 313.4 21.3741C306.415 20.0784 299.755 22.4539 293.029 23.4699C288.777 24.1123 284.83 26.5474 280.596 27.6072C274.924 29.028 270.202 32.1621 265.642 35.4529C261.685 38.3033 258.238 41.8676 254.49 45.178L253.32 43.42L247.554 49.1107L251.516 49.5504C249.085 51.6204 247.484 53.9822 245.382 54.5664C241.505 55.6421 240.634 59.0047 238.685 61.7768L241.942 60.7242L238.251 67.2704C237.65 65.95 237.357 65.3097 236.638 63.7486C235.706 66.8939 234.973 69.2795 234.317 71.6898C234.105 72.4777 234.404 73.5635 233.968 74.1127C228.27 81.2789 229.138 82.9185 227.868 89.2904L226.248 88.5451L226.329 88.5025C225.29 90.4499 224.185 92.3637 223.22 94.3552C222.537 95.7768 222.036 96.9599 222.835 98.8944C223.56 100.649 222.481 103.146 222.152 105.705L219.658 103.813L217.876 120.53L215.996 119.108L216 119.041C215.213 124.074 214.426 129.106 213.6 134.407L212.535 130.789C211.44 134.581 210.564 137.759 209.593 140.902C208.484 144.499 207.598 148.209 206.038 151.618C203.386 157.426 203.187 163.566 203.007 169.697C202.956 171.483 203.962 173.355 204.658 175.108C205.568 177.389 206.933 179.51 207.587 181.85C208.233 184.17 209.305 185.795 211.483 186.842C211.932 187.058 211.961 188.134 212.183 188.808L212.44 189.001L212.261 188.804C211.584 189.065 210.555 189.126 210.278 189.619C208.928 191.989 207.422 194.368 206.637 196.953C205.727 199.925 205.706 203.165 204.937 206.196C204.409 208.297 203.413 210.315 202.356 212.232C200.164 216.225 197.674 220.062 195.575 224.1C194.599 225.985 194.453 228.277 193.587 230.237C192.615 232.45 191.407 234.598 190.018 236.569C188.715 238.411 186.72 239.796 185.568 241.706C183.57 245.007 182.048 248.429 179.235 251.372C176.444 254.277 175.01 258.479 172.933 262.084C166.777 272.797 160.528 283.446 154.455 294.213C149.667 302.703 145.175 311.369 140.406 319.869C135.004 329.505 129.434 339.051 123.958 348.642C120.539 354.627 117.157 360.644 113.729 366.629C109.018 374.863 104.251 383.054 99.5485 391.298C95.3095 398.743 91.1536 406.243 86.9139 413.698C80.3033 425.346 73.6185 436.95 67.036 448.61C63.2578 455.295 59.6569 462.07 55.8972 468.766C53.9231 472.282 51.9113 475.785 49.6597 479.125C48.8695 480.297 47.3127 480.969 45.6579 482.195C45.4353 480.853 45.3284 480.188 45.2407 479.659C43.0963 480.298 40.7184 480.824 38.488 481.718C34.2663 483.408 30.4135 482.792 26.5347 480.656C24.6557 479.621 22.5092 479.079 20.4658 478.313L17.7833 481.865C18.8955 481.19 19.8352 480.629 21.5028 479.626C21.4419 481.954 21.4046 483.547 21.3666 485.286C17.4613 486.612 15.8775 490.213 13.8542 493.202C8.94332 500.309 5.7094 508.301 2.61701 516.341C1.84357 518.356 2.22347 519.932 4.23857 520.822C11.9616 524.231 19.717 527.595 27.4621 530.967C28.6245 531.477 29.8324 531.893 31.4882 532.534C31.5585 530.885 31.6245 529.564 31.7079 527.731C30.0223 528.849 28.8646 529.617 27.4836 530.534C26.7747 528.557 26.2731 527.196 25.4675 524.951C24.7726 526.41 24.4871 527.019 24.0764 527.889C22.8266 527.519 21.5383 527.145 19.6632 526.594C21.2893 524.96 22.5826 523.65 23.4998 522.729C21.8061 522.211 19.8044 521.941 18.1893 521.002C15.7663 519.599 13.5099 518.837 10.8573 520.224C8.70715 521.346 6.74763 520.625 5.12247 519.153C3.50624 517.692 4.45541 516.058 5.21418 514.516C6.80944 511.292 8.40402 508.079 9.99928 504.855L10.9269 505.135C10.5999 506.185 10.3485 507.261 9.93706 508.276C9.00955 510.551 7.88347 512.763 7.06933 515.075C6.60824 516.377 6.38752 517.967 8.38511 518.159C10.6633 513.911 12.8534 509.811 15.0752 505.675C16.8864 506.173 18.0716 506.5 19.2858 506.829C19.5165 505.414 18.8059 504.134 17.154 502.99C16.9831 499.852 19.2546 497.983 21.0404 495.606C22.0886 497.839 23.0119 499.792 23.9345 501.755C21.7914 502.646 20.7591 498.846 18.4324 501.214C19.7215 502.787 23.1875 501.788 22.1947 505.374C23.966 504.679 25.0307 504.262 25.8665 503.935C27.4276 501.59 24.1235 494.957 20.3752 492.888L12.8309 502.862C12.6387 499.617 16.882 493.323 21.2344 489.815C23.7975 492.901 29.1938 492.09 30.9499 496.851C29.9797 497.835 29.1031 498.73 28.0071 499.851C30.4583 503.956 36.2999 505.963 35.193 512.211L36.2032 512.283L38.2502 509.905L38.2618 510.013C37.4594 505.436 39.4431 500.712 42.5304 499.87C43.4652 500.721 44.3898 501.581 45.3459 502.404C45.5101 502.542 45.8434 502.479 46.0351 502.502C47.5728 501.694 49.061 500.901 50.6894 500.041C51.6383 501.638 52.2858 502.719 53.0706 504.043C54.1261 504.022 55.2401 503.996 56.5767 503.966C56.6977 499.863 52.9535 499.081 51.5957 497.522C52.7028 494.902 53.5993 492.79 54.4965 490.668L54.5294 490.748C54.6323 489.72 54.3691 488.404 54.911 487.727C57.3996 484.587 57.467 480.287 60.5445 477.296C62.5823 475.313 63.5515 472.19 64.7906 469.483C65.0774 468.855 64.5309 467.849 64.4391 467.378C66.8225 464.221 69.2518 461.502 71.1157 458.443C75.0965 451.899 78.7525 445.166 82.5842 438.543C86.2929 432.153 90.1403 425.85 93.7837 419.426C97.427 413.002 100.866 406.457 104.482 400.012C105.747 397.752 107.355 395.7 108.629 393.441C116.068 380.236 123.33 366.922 130.899 353.785C138.169 341.169 145.753 328.749 153.144 316.209C158.805 306.601 164.802 297.163 169.811 287.219C172.687 281.514 176.907 276.757 179.64 271.023C181.814 266.477 184.436 262.147 186.955 257.78C187.606 256.656 188.611 255.732 189.776 254.326C188.947 250.251 193.839 247.439 194.528 242.699C190.165 243.798 192.249 249.385 188.06 250.216C188.475 246.589 190.891 244.053 192.673 241.337C193.248 240.459 195.469 240.647 196.695 240.397C198.513 237.18 200.427 233.951 202.146 230.62C202.685 229.585 202.646 228.247 202.877 227.054L202.963 227.06L199.835 230.763L199.005 230.191C201.74 224.969 204.465 219.757 207.2 214.535L207.921 214.858C208.057 216.609 208.201 218.361 208.337 220.112L208.249 220.125C208.862 218.989 209.513 217.875 210.07 216.715C211.049 214.667 211.972 212.585 213.165 209.981C211.679 208.055 213.085 206.115 214.711 204.084C215.53 203.049 215.956 201.696 216.528 200.47C216.688 200.123 216.654 199.656 216.868 199.362C219.396 195.945 221.971 192.55 224.508 189.143C225.193 188.215 225.665 187.029 226.536 186.357C227.795 185.383 229.288 184.261 230.745 184.163C232.076 184.075 234.114 184.918 234.685 185.985C235.198 186.931 234.517 189.001 233.721 190.115C231.045 193.841 228.899 198.147 224.523 199.69C224.095 202.543 223.729 204.945 223.25 208.113C222.039 206.797 221.43 206.124 220.955 205.606C215.766 215.238 210.599 224.823 205.241 234.78L202.433 234.84C202.573 236.117 202.698 237.21 202.829 238.342C200.405 238.303 200.748 240.524 200.217 242.121C199.882 243.152 199.683 244.298 199.089 245.165C196.657 248.725 194.829 252.502 193.374 256.597C192.247 259.767 189.923 262.493 188.174 265.444C184.475 271.69 180.787 277.936 177.144 284.215C172.378 292.406 167.639 300.618 162.9 308.821C159.454 314.785 156.018 320.75 152.572 326.714C148.684 333.449 144.796 340.184 140.908 346.919C138.566 350.97 136.179 354.987 133.922 359.073C131.366 363.688 128.987 368.394 126.413 372.998C125.891 373.938 124.867 374.599 123.836 375.618C124.31 378.981 122.576 381.711 119.813 383.96L119.893 383.927L119.885 383.897ZM489.464 152.917L489.552 152.904L489.965 152.141C491.411 152.873 493.336 153.273 494.15 154.454C494.877 155.512 494.373 157.411 494.418 159.06C492.498 158.873 491.757 158.017 491.472 156.322C491.229 154.863 490.488 153.475 489.97 152.064L489.464 152.917ZM149.573 317.181L149.671 317.168L149.573 317.181ZM454.784 274.126L454.504 274.26L454.806 274.224L455.138 274.045L454.793 274.136L454.784 274.126ZM502.548 178.608L502.409 177.311L501.619 175.658L503.348 176.218C505.379 176.299 506.299 177.672 506.108 180.335C504.879 178.457 504.103 177.278 503.337 176.101L502.321 177.315L502.46 178.621L503.239 179.616L502.809 179.807L502.549 178.589L502.548 178.608ZM258.098 55.5097L258.187 55.4871L259.691 52.4603C258.758 51.0387 258.681 49.9592 260.325 49.5549L261.346 50.1508L259.583 52.4816L258.09 55.4994L258.098 55.5097ZM302.396 251.074C301.998 250.968 301.609 250.863 301.21 250.757L301.504 250.168L302.42 251.144L302.396 251.074ZM223.174 121.356L223.076 121.369L223.02 125.235L223.108 125.222L223.164 121.356L223.174 121.356ZM384.132 52.5258L383.061 51.2781L383.573 51.015L384.024 52.5471L385.871 54.8279L384.735 55.2977L384.132 52.5258ZM219.891 138.633C219.81 137.466 219.74 136.3 219.659 135.133L220.44 135.16L219.793 138.645L220.31 141.005L219.363 140.995L219.881 138.632L219.891 138.633ZM309.547 228.948C310.36 230.283 311.183 231.619 311.996 232.955L311.366 233.519L307.192 230.365C308.201 229.789 308.927 229.367 309.653 228.955L304.99 226.694C304.102 226.94 302.889 227.279 301.675 227.617C303.646 224.682 304.204 224.451 306.156 225.811C307.409 226.684 308.424 227.899 309.537 228.956L309.547 228.948ZM307.132 260.519C305.156 261.384 304.941 259.791 304.582 258.604C304.108 256.993 303.783 255.325 303.271 253.159C304.357 252.85 305.66 252.48 307.18 252.057L307.135 260.616L307.123 260.519L307.132 260.519ZM467.499 135.364L467.411 135.377C470.603 137.241 474.005 138.753 475.076 142.952C475.407 144.263 477.027 145.269 478.109 146.354C478.957 147.208 479.897 147.982 480.788 148.781L480.178 149.598C478.161 148.863 476.35 147.959 474.977 145.935C473.045 143.087 470.808 140.449 468.763 137.68C468.243 136.975 467.908 136.128 467.49 135.344L467.499 135.364ZM211.878 157.002C211.684 154.995 211.481 152.987 211.247 150.58L217.682 149.446C217.148 153.917 220.686 157.964 216.959 162.331C215.128 160.767 213.579 159.446 212.03 158.125L211.878 157.002ZM336.975 286.061C335.849 285.457 334.786 284.636 333.581 284.317C331.484 283.76 330.236 282.557 329.68 280.602C333.867 280.206 338.004 279.817 342.658 279.377C342.09 280.284 341.654 281.24 340.982 281.975C339.68 283.411 338.242 284.72 336.858 286.081C340.406 287.71 343.166 285.635 345.878 283.953C348.145 282.549 350.119 282.265 352.159 284.153C349.785 288.801 347.206 290.638 342.28 291.232C338.787 291.658 336.925 289.85 336.965 286.07L336.975 286.061ZM361.471 293.84C363.99 291.631 366.472 289.381 369.035 287.234C370.475 286.031 371.797 286.339 373.037 287.792C370.564 289.008 369.587 290.718 370.105 292.923C374.062 292.356 375.434 286.997 380.044 287.571C380.442 289.167 380.84 290.753 381.127 291.877C378.922 292.55 377.31 293.179 375.643 293.505C372.896 294.052 370.117 294.51 367.33 294.803C365.449 295.007 363.545 294.86 361.649 294.869C359.038 294.323 356.427 293.787 353.065 293.081L348.52 293.209L348.284 292.05C352.555 290.49 356.171 287.538 360.574 286.277L360.989 286.965C360.034 288.551 359.069 290.136 358.014 291.889L361.473 293.811L361.471 293.84ZM155.989 306.225L154.278 309.711L153.694 309.359L156.067 306.221C157.322 303.563 158.475 300.84 159.86 298.25C164.396 289.762 168.989 281.306 173.599 272.862C176.527 267.509 179.493 262.169 182.524 256.872C183.022 255.998 183.948 255.358 184.679 254.608L185.35 255.091C185.202 255.797 185.266 256.653 184.881 257.167C179.077 264.993 176.315 274.634 170.02 282.164C169.448 282.849 169.152 283.747 168.726 284.558C164.845 292 161.456 299.729 155.979 306.234L155.989 306.225ZM222.734 178.846L222.74 178.759L222.955 181.416C222.063 181.72 221.359 181.959 220.497 182.246C220.962 185.472 218.808 186.778 216.358 188.034L212.543 185.147C212.098 183.132 212.174 181.405 211.358 180.379C210.595 179.424 208.889 179.205 207.603 178.668C209.607 177.428 211.89 179.169 213.177 176.466C212.509 175.392 211.79 174.237 211.019 172.992C212.758 170.998 214.909 170.804 217.117 170.75L217.01 170.771L219.874 169.536C220.891 172.869 221.808 175.848 222.726 178.826L222.734 178.846ZM458.846 126.991C462.655 127.681 464.305 129.474 464.843 133.16C465.023 134.421 465.419 135.775 466.128 136.803C469.283 141.346 472.621 145.756 475.817 150.262C476.854 151.711 477.697 153.3 478.591 154.854C480.062 157.398 481.451 159.995 482.972 162.513C483.819 163.919 485.018 165.127 485.774 166.575C487.432 169.752 488.917 173.032 490.473 176.269L492.307 176.45L492.012 177.328L490.481 176.163C490.701 177.669 490.912 179.174 491.138 180.739L493.317 180.828C493.129 183.185 492.965 185.331 492.774 187.707C494.14 187.273 494.961 187.022 496.544 186.526C496.653 188.508 496.741 190.101 496.855 192.151L493.513 190.885C493.403 192.677 493.578 194.15 493.185 195.448C491.631 200.522 490.262 205.697 488.136 210.527C485.629 216.21 482.778 221.83 479.379 227.013C475.741 232.547 471.636 237.864 467.093 242.675C462.937 247.079 457.993 250.758 453.277 254.608C449.867 257.382 446.607 260.892 442.657 262.301C437.516 264.137 434.32 269.452 428.421 269.589C427.539 269.612 426.715 270.714 425.81 271.201C424.694 271.798 423.549 272.393 422.342 272.761C417.298 274.333 412.23 275.817 407.187 277.37C406.712 277.52 406.34 277.986 405.87 278.194C400.987 280.349 395.971 282.049 390.577 282.3C387.229 282.456 383.793 282.238 380.569 282.955C375.743 284.04 371.09 282.447 366.338 282.773C363.928 282.938 361.458 282.596 359.058 282.221C356.275 281.788 353.519 281.106 350.772 280.454C349.64 280.189 348.55 279.743 347.467 279.336C342.062 277.322 338.552 272.735 334.359 269.192C331.086 266.422 328.74 262.479 326.303 258.84C323.937 255.303 322.202 251.327 319.774 247.844C315.654 241.926 313.312 235.227 312.405 228.35C311.578 222.088 310.19 215.98 308.089 210.236C305.648 203.559 304.64 196.462 301.217 190.014C298.525 184.954 297.502 179.007 295.666 173.205C296.179 172.516 296.754 171.648 297.438 170.885C301.066 166.82 304.776 162.83 308.369 158.725C311.782 154.829 314.692 150.404 318.533 147.013C322.323 143.667 321.634 140.201 320.675 136.32C320.215 137.874 320.542 139.784 319.785 141.036C317.396 144.938 314.909 148.871 311.852 152.241C309.636 154.684 306.441 156.216 303.725 158.217C298.946 161.743 296.977 161.834 292.813 158.545C290.623 159.287 290.563 160.657 291.593 162.472C292.717 164.449 294.008 166.41 293.534 169.762C291.309 167.628 289.581 165.975 287.771 164.249L283.432 164.614C284.905 161.875 286.855 161.251 288.3 161.326C290.077 159.48 291.166 157.788 292.712 156.854C296.019 154.847 299.697 153.457 302.959 151.389C308.602 147.818 313.794 143.663 317.474 137.938C318.607 136.172 319.564 134.286 320.682 132.325C319.073 128.078 315.276 127.36 312.288 130.986C310.964 132.594 309.729 134.295 308.58 136.022C305.979 139.918 302.481 142.84 298.437 145.016C295.621 146.526 292.655 148.103 289.246 146.687L286.818 148.854C286.87 146.787 286.916 144.797 286.966 142.634L288.549 141.19C287.363 138.995 286.457 136.792 285.091 134.952C283.063 132.223 280.008 130.59 276.735 130.529C271.094 130.433 265.733 131.702 261.42 135.872C250.808 146.139 251.629 150.465 260.303 159.613C260.393 159.706 260.493 159.791 260.583 159.885C264.119 163.428 264.17 164.874 260.125 167.998C253.643 173.018 246.983 177.822 240.376 182.688C239.988 182.98 239.424 183.026 238.68 183.282C234.936 179.269 230.734 175.977 225.289 177.066C223.836 174.01 222.507 171.244 221.207 168.47C220.889 167.79 220.272 166.952 220.439 166.383C222.098 160.794 220.165 154.724 223.173 149.203C224.566 146.642 225.552 143.288 223.817 140.512C224.756 139.699 226.024 139.142 226.269 138.289C227.132 135.303 228.176 132.204 228.163 129.156C228.146 124.82 227.727 120.571 230.387 116.786L230.38 116.892L230.728 110.84L231.396 110.695L233.573 113.628C234.612 110.22 235.356 107.525 236.262 104.881C238.184 99.2723 240.19 93.6887 242.188 88.1044C242.309 87.7551 242.667 87.4906 242.856 87.1462C244.007 85.1197 245.149 83.0925 246.263 81.0536C247.753 78.3452 249.225 75.6354 250.697 72.916C251.376 71.6683 252.028 70.409 252.735 69.173C253.433 67.946 254.031 66.6151 254.94 65.5483C258.288 61.6189 261.399 57.479 265.627 54.3578C267.628 52.8859 269.215 50.8617 271.199 49.3595C273.132 47.8924 275.321 46.7629 277.422 45.5207C278.402 44.9429 279.4 44.3664 280.464 43.9592C283.735 42.7236 287.03 41.5479 290.333 40.3921C291.275 40.0632 292.262 39.7858 293.258 39.6543C295.415 39.374 297.704 39.5579 299.742 38.9207C304.894 37.327 310.22 38.1647 315.433 37.4849C319.493 36.9641 323.661 37.3702 327.79 37.3672L326.926 34.5959C330.098 34.7272 333.517 33.8507 335.239 35.1839C337.868 37.221 340.389 37.528 343.349 37.7796C344.771 37.9012 346.907 38.3257 346.109 41.0839C345.451 41.0946 344.759 41.2965 344.223 41.0934C341.689 40.1566 339.216 39.0499 336.67 38.1411C333.766 37.1003 330.817 36.1529 327.693 37.3699C329.797 38.3727 331.8 39.8421 334.012 40.2721C337.626 40.9867 341.026 41.9859 344.297 43.6918C345.238 44.1852 346.805 43.9205 347.925 43.5366C350.841 42.5175 354.688 43.4811 357.424 46.5901L350.681 45.4183C352.312 48.0222 355.932 49.85 357.986 49.2623C360.326 48.5984 362.651 47.8658 365.033 47.4178C367.67 46.9205 368.438 47.7982 368.478 51.5551C365.896 51.4179 363.352 51.293 360.028 51.1217C361.464 52.2603 362.426 53.4131 363.664 53.9472C367.463 55.5845 371.341 56.9181 374.593 59.7062C375.832 60.7629 377.85 61.0725 379.57 61.3607C382.523 61.8535 385.009 63.0482 387.196 64.918L386.822 65.6749L381.883 62.9492L381.284 63.6125C382.202 64.5687 382.943 65.9572 384.063 66.3957C389.403 68.5116 394.144 71.5713 398.685 74.994C400.317 76.224 402.024 77.3723 403.699 78.5474C405.172 79.5822 406.72 80.5159 408.129 81.6331C410.407 83.4418 413.041 84.5988 415.326 86.5724C418.367 89.2003 421.676 92.128 426.033 92.8574C426.215 92.8898 426.356 93.2096 426.571 93.4572L424.606 94.148C427.451 96.5489 430.397 98.4733 432.582 101.04C434.605 103.43 436.877 105.054 439.661 106.28C443.691 108.06 447.075 110.616 448.566 115.028L448.554 114.931C449.439 115.662 450.238 116.532 451.223 117.087C453.936 118.627 455.895 120.558 455.477 123.411L459.008 126.887L458.901 126.908L458.846 126.991ZM282.112 166.696C280.042 170.34 278.319 173.457 276.513 176.521C276.006 177.384 275.424 178.348 274.624 178.852C271.819 180.605 268.902 182.175 266.028 183.817C264.144 184.059 262.213 184.413 260.457 185.177C256.892 186.74 252.721 185.308 251.666 181.681C252.827 180.874 253.987 179.797 255.348 179.159C258.729 177.593 262.169 176.147 265.649 174.82C271.138 172.728 275.799 169.367 280.252 165.662C280.427 165.52 280.743 165.562 281.282 165.466C281.675 166.055 282.12 166.726 282.102 166.695L282.112 166.696ZM148.414 342.041L147.361 341.365C161.937 315.757 176.514 290.159 191.1 264.551L192.131 265.138C177.563 290.766 162.993 316.404 148.415 342.031L148.414 342.041ZM108.731 412.47C108.389 412.252 108.046 412.044 107.714 411.826C120.226 389.785 132.748 367.735 145.26 345.694L146.096 346.17C133.647 368.274 121.19 390.367 108.741 412.471L108.731 412.47ZM294.439 180.315C292.655 179.578 290.992 179.168 289.664 178.269C287.579 176.871 285.525 175.311 283.819 173.485C282.526 172.105 283.025 170.274 284.19 168.858C285.515 167.25 286.95 168.002 288.34 168.847C292.416 171.327 295.546 174.338 294.449 180.316L294.439 180.315ZM337.171 275.403C334.42 276.405 331.908 277.327 329.544 278.192C327.72 277.335 326.111 276.581 324.128 275.645L324.427 272.019C329.017 272.475 333.769 269.991 337.161 275.402L337.171 275.403ZM307.658 244.863C312.105 243.142 317.084 245.851 319.279 251.224C317.804 251.292 316.435 251.377 315.059 251.414C309.8 251.529 308.816 250.684 307.668 244.864L307.658 244.863ZM319.246 263.248C323.615 263.272 327.503 263.813 330.079 268.333C327.532 268.653 325.383 268.953 323.239 269.176C319.128 269.596 317.746 267.707 319.255 263.258L319.246 263.248ZM285.391 28.2907C286.364 31.4471 284.233 34.9803 280.153 37.3961C278.173 38.5696 276.546 38.4719 275.315 36.2258C277.33 35.2386 279.476 34.5705 281.117 33.2758C282.767 31.9722 283.931 30.0433 285.381 28.2996L285.391 28.2907ZM282.367 142.845C279.687 143.803 275.632 142.777 273.926 140.535C273.458 139.921 273.758 138.713 273.712 137.733C276.027 138.083 277.672 138.337 279.318 138.581C281.624 138.921 282.855 140.093 282.367 142.845ZM304.02 215.44C308.13 217.457 310.27 220.911 309.626 224.493C303.183 221.04 302.671 220.219 304.02 215.44ZM324.804 260.319C322.38 260.145 320.357 260.174 318.432 259.774C317.479 259.58 316.507 258.716 315.899 257.889C315.335 257.123 315.232 256.003 314.932 255.062C319.556 254.098 322.557 256.2 324.795 260.319L324.804 260.319ZM274.799 149.519C271.173 152.199 267.488 150.464 266.389 145.576C270.891 145.358 273.67 146.66 274.799 149.519ZM407.258 66.5734L402.471 68.0579L394.547 62.0602C398.746 63.378 403.53 63.0157 407.268 66.5741L407.258 66.5734ZM310.333 23.824L310.891 24.8027L301.601 30.8108L301.136 30.2935L305.34 25.4775L304.808 24.9458L301.007 26.4334C303.354 20.9517 307.401 25.0645 310.332 23.8336L310.333 23.824ZM299.371 203.311C303.285 203.476 305.611 206.498 306.305 212.45C304.13 209.342 298.873 208.616 299.371 203.311ZM325.141 29.0202L324.494 25.1131L320.644 25.9392C320.736 23.5754 322.128 22.9208 323.483 23.2988C325.341 23.8194 328.16 23.3545 328.357 26.8035L325.132 29.0195L325.141 29.0202ZM480.228 135.321L476.993 131.615C481.09 131.803 482.032 133.361 481.813 139.363C480.353 138.823 479.025 138.331 477.065 137.609C478.504 136.561 479.269 136.007 480.218 135.32L480.228 135.321ZM227.264 100.384C229.3 102.726 230.304 105.034 229.661 107.658C229.319 109.046 228.275 110.383 225.513 109.798C229.42 107.108 226.065 103.732 227.273 100.384L227.264 100.384ZM310.351 260.267C314.111 262.714 311.824 265.607 312.289 267.886L315.149 269.804C312.591 271.081 311.14 270.551 310.801 268.272C310.457 265.925 310.513 263.53 310.351 260.267ZM447.43 97.6178L444.555 101.426L440.83 95.1307C443.721 93.5196 444.988 96.3392 447.43 97.6178ZM429.557 85.6799C435.858 86.9457 437.108 88.1193 436.899 92.7679C433.569 91.2125 432.276 87.946 429.557 85.6799ZM325.183 34.6254C321.807 34.1021 319.575 36.7764 316.621 34.687C318.863 32.9519 320.489 31.0465 323.107 31.7572C323.762 31.9301 324.131 33.1177 325.183 34.6254ZM277.894 156.098C278.354 152.793 278.692 150.379 279.067 147.716C282.986 149.962 282.681 152.862 277.894 156.098ZM272.737 38.7302C273.191 43.3008 270.193 44.6526 267.585 47.0387C267.778 43.134 269.605 41.0013 272.737 38.7302ZM313.882 241.15C309.761 240.37 307.262 238.952 306.384 236.896C307.999 237.041 309.574 237.183 311.265 237.344C311.868 238.093 312.527 238.886 313.155 239.705C313.375 240.001 313.494 240.368 313.882 241.15ZM312.284 29.9051C312.921 25.084 314.837 23.0448 318.931 22.5942C316.674 25.0733 314.752 27.1895 312.284 29.9051ZM373.096 45.6948C369.491 44.7196 365.876 43.7534 361.475 42.5661C366.318 41.6468 369.804 43.1941 373.096 45.6948ZM427.737 80.5951L425.613 85.1254L421.793 79.3357L422.384 78.7879L427.727 80.5945L427.737 80.5951ZM392.401 290.143C389.803 290.914 387.718 291.528 385.643 292.143C387.26 290.092 388.168 287.294 391.758 287.523L392.401 290.152L392.401 290.143ZM377.907 57.3225L377.366 58.6575C374.653 59.1397 373.307 57.1465 371.75 55.5349L372.192 54.6377L377.907 57.3225ZM489.604 167.518L488.805 168.002C487.503 165.258 484.991 163.084 485.163 159.071L489.604 167.518ZM37.4269 501.854C33.6405 503.14 33.0772 502.635 33.4558 498.85L37.4269 501.854ZM243.146 81.9035L242.021 82.3451C241.582 81.4621 240.814 80.5748 240.837 79.7153C240.856 79.1941 242.118 78.7141 243.545 77.6943L243.146 81.9035ZM404.986 289.287C405.222 285.995 405.437 285.7 408.496 284.576C407.73 286.62 407.517 288.646 404.986 289.287ZM324.367 279.987C324.787 279.795 325.216 279.613 325.636 279.421C328.557 280.482 326.877 283.003 327.384 284.829L326.51 285.153C325.792 283.428 325.084 281.713 324.367 279.987ZM270.766 157.327C271.267 159.763 270.499 160.907 268.788 160.629C268.052 160.509 267.515 159.096 266.428 157.673C268.49 157.512 269.55 157.423 270.766 157.327ZM485.248 148.347L484.879 147.556C485.702 146.329 486.515 145.11 487.36 143.855C489.294 144.932 488.718 146.342 487.761 147.425C487.244 148.017 486.11 148.051 485.248 148.347ZM313.065 136.044C313.712 134.31 314.467 133.097 316.161 134.148C316.642 134.444 316.961 135.937 316.646 136.408C315.571 138.043 314.364 137.347 313.065 136.044ZM239.298 87.6741L235.382 84.7123L239.132 82.9888L239.298 87.6741ZM363.81 39.4153L363.185 40.7056L359.332 38.8805L359.925 37.6265L363.8 39.4146L363.81 39.4153ZM292.542 29.7144C292.652 31.767 291.728 32.5617 289.769 32.0984L292.542 29.7144ZM293.433 196.992C296.605 198.342 296.68 198.909 294.229 201.122C293.969 199.768 293.715 198.453 293.433 196.992ZM479.039 235.639L479.536 236.391C477.968 237.487 476.39 238.583 474.822 239.68L474.272 238.857C475.858 237.781 477.453 236.715 479.039 235.639ZM416.131 278.458L415.812 277.11C416.931 276.88 418.05 276.651 419.168 276.422C419.248 276.795 419.327 277.178 419.406 277.552C418.312 277.85 417.226 278.159 416.131 278.458ZM344.567 27.969C342.882 28.6799 341.101 29.5002 340.217 26.4662L344.567 27.969ZM228.643 95.1902L229.977 94.9185L230.367 98.5168L229.38 98.6587C229.134 97.5089 228.888 96.3495 228.632 95.1991L228.643 95.1902ZM297.186 220.647L297.167 221.72L293.278 221.885C294.756 219.215 295.953 219.784 297.186 220.647ZM299.713 150.942C298.606 151.811 297.929 152.352 296.657 153.364C296.758 151.823 296.803 151.062 296.869 150.022L299.713 150.942ZM309.654 34.2054L309.974 35.2638L305.649 36.5105L305.345 35.5017L309.654 34.2054ZM416.952 285.193L417.484 286.267C416.572 286.704 415.66 287.152 414.739 287.588L414.241 286.585C415.145 286.118 416.048 285.66 416.951 285.203L416.952 285.193ZM335.466 288.623C335.123 288.956 334.78 289.289 334.427 289.622C333.711 288.825 333.004 288.03 332.288 287.233C332.589 286.945 332.89 286.657 333.191 286.369C333.95 287.12 334.698 287.871 335.457 288.622L335.466 288.623ZM348.163 31.3528L348.529 30.4309L352.467 32.0106L352.186 32.6871L348.162 31.3624L348.163 31.3528ZM470.146 127.185L470.482 126.686L473.022 128.61L472.678 129.099L470.146 127.185ZM317.469 271.422L318.326 270.671C318.876 271.359 319.427 272.037 319.977 272.725L319.234 273.368C318.643 272.716 318.051 272.073 317.469 271.422ZM266.371 38.4951L267.511 38.7802L266.731 41.9654L265.619 41.6919L266.362 38.4944L266.371 38.4951ZM330.819 25.6357L330.842 24.3795L333.632 24.5801L333.619 25.566L330.819 25.6453L330.819 25.6357ZM241.693 72.2589L240.735 72.6641L239.761 70.3397L240.769 69.909L241.683 72.2582L241.693 72.2589ZM296.223 38.0968L295.777 37.4359L299.282 35.7625L299.668 36.5835L296.222 38.1064L296.223 38.0968ZM396.609 288.917C396.741 288.026 396.69 287.519 396.909 287.158C397.03 286.954 397.82 286.865 397.88 286.976C398.095 287.35 398.316 287.907 398.166 288.245C398.049 288.527 397.425 288.588 396.609 288.917ZM147.579 320.172L148.434 320.785L146.49 324.148L145.768 323.709C146.374 322.533 146.982 321.348 147.589 320.173L147.579 320.172ZM62.9234 486.978L64.0996 487.565L62.7976 489.804C62.4905 489.636 62.1834 489.469 61.8763 489.302L62.9234 486.978ZM234.528 99.2804L233.397 99.4119L233.301 96.5701L234.245 96.4928L234.529 99.2708L234.528 99.2804ZM391.105 57.2168L391.414 56.8133L393.487 58.3846L393.177 58.7881L391.105 57.2168ZM306.845 145.359L307.181 145.926L304.39 147.621C304.543 146.713 305.051 146.372 305.576 146.062C305.991 145.811 306.422 145.59 306.845 145.359ZM271.829 189.875L270.682 189.966L270.547 187.944C270.906 187.922 271.56 187.833 271.576 187.883C271.713 188.531 271.762 189.202 271.829 189.875ZM507.885 186.413L508.575 186.637C508.453 187.257 508.341 187.878 508.219 188.488L506.967 188.021L507.895 186.414L507.885 186.413ZM232.808 108L232.258 108.115C232.065 107.705 231.747 107.295 231.729 106.868C231.714 106.538 232.077 106.196 232.266 105.862L232.804 106.045L232.807 108.01L232.808 108ZM296.153 233.132L295.817 232.963C295.997 232.482 296.102 231.957 296.365 231.531C296.529 231.262 296.944 231.147 297.237 230.965L297.5 231.342L296.143 233.141L296.153 233.132ZM496.318 197.192L496.908 197.602L495.732 199.162L495.243 198.827L496.318 197.192ZM427.335 274.6L427.487 275.588L425.541 275.622L425.483 274.941L427.335 274.6ZM290.977 26.0605L291.377 26.4183L290.504 27.3908L290.095 27.0228L290.986 26.0612L290.977 26.0605ZM322.321 278.447L322.21 279.049C321.617 278.958 321.015 278.856 320.422 278.765L320.544 278.145C321.137 278.246 321.729 278.346 322.321 278.457L322.321 278.447ZM291.223 195.991L290.794 196.579L288.97 195.316L289.462 194.655L291.223 195.991ZM482.325 229.209L482.913 228.835C482.989 229.121 483.094 229.399 483.103 229.681C483.1 229.729 482.708 229.797 482.491 229.859C482.439 229.643 482.377 229.425 482.325 229.209ZM302.23 199.588C302.109 199.386 301.883 199.176 301.887 198.983C301.897 198.839 302.215 198.716 302.389 198.584L302.891 199.404C302.674 199.465 302.447 199.526 302.22 199.597L302.23 199.588ZM435.391 101.774C436.015 101.703 436.409 101.605 436.434 101.665C436.548 101.954 436.573 102.285 436.628 102.598L435.391 101.774ZM373.677 48.2426L373.481 47.5996L374.407 47.6371L374.358 48.3109C374.137 48.295 373.907 48.2688 373.677 48.2426ZM298.927 24.8325L299.122 25.3497L297.98 25.761L297.802 25.2838L298.927 24.8325ZM488.354 245.142L488.506 244.515C488.696 244.567 488.895 244.62 489.082 244.701C489.092 244.702 489.052 244.989 488.983 245.013C488.783 245.096 488.57 245.109 488.354 245.142ZM253.794 187.726L253.905 188.334C253.691 188.358 253.422 188.464 253.274 188.376C253.153 188.3 253.176 187.992 253.142 187.786C253.356 187.763 253.58 187.74 253.795 187.717L253.794 187.726ZM298.984 231.555L299.527 231.671L299.209 232.994L298.677 232.868L298.985 231.545L298.984 231.555ZM237.82 92.0863L237.081 92.4201L236.775 91.1597L237.231 90.999L237.82 92.0863ZM248.716 70.4708C248.78 70.2528 248.845 70.0253 248.937 69.8191C248.938 69.8095 249.155 69.8831 249.268 69.9203C249.204 70.1382 249.139 70.3658 249.047 70.572C249.046 70.5816 248.829 70.508 248.716 70.4708ZM471.017 250.243L471.228 250.394L470.554 251.293L470.387 251.194L471.016 250.253L471.017 250.243ZM293.015 152.909L293.544 153.218C293.479 153.319 293.368 153.515 293.349 153.513C293.161 153.432 292.986 153.323 292.809 153.223C292.874 153.121 292.94 153.019 293.006 152.908L293.015 152.909ZM310.683 255.25L310.525 254.629C310.718 254.624 310.923 254.6 311.114 254.633C311.162 254.636 311.23 254.902 311.189 254.938C311.045 255.063 310.855 255.146 310.683 255.25ZM436.28 273.124L436.714 272.865L436.691 273.192L436.28 273.124ZM197.495 253.478L196.984 253.335L197.324 251.956L197.865 252.102L197.486 253.477L197.495 253.478ZM249.677 185.408C249.621 184.843 249.556 184.538 249.605 184.252C249.611 184.175 250.043 184.08 250.212 184.15C250.39 184.231 250.624 184.606 250.582 184.661C250.401 184.889 250.128 185.054 249.677 185.408ZM394.644 290.556C394.602 290.466 394.523 290.353 394.548 290.278C394.573 290.202 394.702 290.153 394.784 290.092L394.955 290.53L394.654 290.556L394.644 290.556ZM484.184 142.968L484.355 143.552C484.03 143.625 483.714 143.718 483.383 143.753C483.354 143.751 483.284 143.378 483.231 143.171L484.174 142.968L484.184 142.968ZM224.464 136.901L224.442 137.199C224.337 137.182 224.201 137.192 224.166 137.141C224.123 137.07 224.18 136.948 224.187 136.852L224.473 136.902L224.464 136.901ZM406.383 69.4616C406.58 69.4177 406.787 69.3552 406.992 69.3312C407.021 69.3333 407.121 69.5533 407.095 69.6482C407.069 69.7431 406.875 69.8839 406.847 69.8722C406.681 69.7539 406.537 69.6081 406.393 69.4623L406.383 69.4616ZM205.482 172.39L205.36 171.801C205.553 171.815 205.756 171.81 205.936 171.862C205.993 171.876 206.041 172.15 206.011 172.167C205.849 172.262 205.661 172.326 205.473 172.39L205.482 172.39ZM196.648 235.807L196.893 235.902L196.422 236.527L196.304 236.431L196.649 235.798L196.648 235.807ZM279.515 133.148L279.478 133.658L278.433 133.535L278.466 133.082L279.514 133.158L279.515 133.148ZM15.8687 523.554C15.6763 523.541 15.4722 523.555 15.2818 523.512C15.2344 523.499 15.1769 523.224 15.2071 523.207C15.3789 523.103 15.5769 523.04 15.7666 522.957C15.8009 523.153 15.8344 523.358 15.8584 523.563L15.8687 523.554ZM474.689 259.689C474.618 259.597 474.5 259.492 474.506 259.405C474.513 259.309 474.636 259.221 474.71 259.129L475.025 259.587L474.689 259.689ZM106.115 415.359C106.196 415.181 106.268 414.983 106.367 414.816C106.389 414.788 106.549 414.848 106.644 414.865C106.563 415.053 106.491 415.241 106.383 415.407C106.371 415.435 106.211 415.376 106.115 415.359ZM277.471 30.9819L277.661 30.7633L277.913 31.1588C277.825 31.1814 277.713 31.2508 277.638 31.2261C277.563 31.1916 277.523 31.0727 277.471 30.9819ZM465.03 267.47C465.13 267.294 465.23 267.107 465.349 266.932C465.36 266.914 465.527 267.013 465.621 267.048C465.512 267.224 465.421 267.411 465.293 267.576C465.282 267.595 465.124 267.506 465.031 267.461L465.03 267.47ZM103.545 420.312L103.397 420.214L103.821 419.567L104.015 419.697L103.554 420.313L103.545 420.312ZM151.794 313.867L151.533 314.138C151.487 313.97 151.422 313.801 151.405 313.626C151.407 313.607 151.623 313.554 151.732 313.524L151.784 313.866L151.794 313.867ZM416.462 85.5608L417.066 85.6429L416.961 85.8869L416.473 85.5518L416.462 85.5608ZM506.725 191.661L506.914 191.442L506.99 191.738L506.734 191.662L506.725 191.661ZM139.21 334.896L139.717 334.972C139.671 335.075 139.633 335.188 139.561 335.26C139.497 335.333 139.379 335.363 139.288 335.415L139.21 334.896ZM100.561 425.225C100.616 425.142 100.653 425.019 100.734 424.977C100.774 424.95 100.893 425.056 100.976 425.1C100.921 425.193 100.875 425.306 100.794 425.349C100.754 425.375 100.645 425.27 100.562 425.216L100.561 425.225ZM68.3812 489.479L68.5991 489.408L68.553 489.647L68.3716 489.479L68.3812 489.479ZM316.413 262.977L316.208 262.875L316.4 262.753L316.413 262.977ZM509.842 200.758L509.619 200.625L509.862 200.478L509.842 200.758ZM98.7684 429.18L98.785 428.949L98.9616 429.048L98.7684 429.18Z" fill="#A94D1A"/>
</g>
<g style="mix-blend-mode:multiply">
<path d="M73.6096 518.979C71.9068 521.546 72.0382 524.023 74.6852 526.748C72.7922 526.312 71.6606 526.047 70.5282 525.791L69.7898 526.377C74.1852 528.996 78.5297 531.649 75.5558 537.773C76.4359 538.04 77.0791 538.241 77.8836 538.482C77.7078 539.718 77.5305 540.973 77.3623 542.102C78.3395 543.44 79.2109 544.635 80.504 546.421C78.7317 546.458 77.7339 546.483 76.5141 546.502C77.1642 549.025 79.2628 549.292 81.8009 550.036L79.5257 553.975L79.5326 553.879C80.1763 554.205 80.8201 554.532 81.931 555.086C84.5098 548.809 86.6652 542.907 84.0441 536.323C82.4223 532.249 80.9401 528.117 79.3486 524.026C78.8435 522.712 78.1989 521.457 77.614 520.176L77.7116 520.164C78.6916 524.153 79.6227 528.148 80.6721 532.113C81.6612 535.842 82.8282 539.515 83.8076 543.243C83.975 543.874 83.62 544.642 83.511 545.35L82.6753 545.542C82.0844 543.941 81.4042 542.373 80.9117 540.751C79.034 534.453 77.2643 528.133 75.3468 521.851C75.0257 520.803 74.1307 519.935 73.5031 518.981L73.6007 518.968L73.6096 518.979Z" fill="#A94D1A"/>
</g>
<g style="mix-blend-mode:multiply">
<path d="M58.2605 513.231L60.9693 516.309C60.9439 512.224 63.5296 507.33 57.3422 505.695C55.5314 505.73 53.6526 505.769 51.6191 505.806L49.0548 509.192C48.5577 512.475 48.1385 515.212 47.6096 518.667C49.7887 516.066 51.3757 514.168 53.1319 512.069C52.6657 511.29 52.0855 510.349 51.3426 509.115C54.0267 507.827 56.6968 508.619 58.7408 509.376C60.9078 510.17 59.742 512.128 58.2715 513.348L58.2516 513.22L58.2605 513.231Z" fill="#A94D1A"/>
</g>
<g style="mix-blend-mode:multiply">
<path d="M72.7022 536.978C72.4378 535.275 72.1727 533.582 71.9302 531.978C69.3302 531.423 67.2344 530.982 64.6062 530.416C64.6163 532.158 64.617 533.494 64.6225 534.897C66.074 534.479 67.3382 533.709 68.4053 533.93C69.4064 534.128 70.1644 535.421 71.109 536.137C71.6043 536.512 72.2488 536.693 72.8293 536.958L72.7118 536.978L72.7022 536.978Z" fill="#A94D1A"/>
</g>
<g style="mix-blend-mode:multiply">
<path d="M72.8291 536.958L68.6011 545.729C69.5374 546.29 70.9094 547.114 72.7079 548.192C73.234 547.33 73.7602 546.468 74.4404 545.346L70.6102 544.819C72.1649 543.102 73.2691 541.866 74.6883 540.284C74.102 539.294 73.4119 538.132 72.7219 536.969L72.8394 536.949L72.8291 536.958Z" fill="#A94D1A"/>
</g>
<g style="mix-blend-mode:multiply">
<path d="M38.2516 509.886C39.3471 511.058 40.4426 512.23 41.3856 513.236C43.2908 512.696 41.2038 509.847 43.8246 510.248L43.7263 510.27C43.6879 508.787 43.6406 507.293 43.5948 505.51C40.5502 506.026 39.5444 508.179 38.2543 509.983L38.2427 509.876L38.2516 509.886Z" fill="#A94D1A"/>
</g>
<g style="mix-blend-mode:multiply">
<path d="M64.2418 517.463L66.78 523.316L67.5737 523.305C68.0456 521.181 68.5263 519.068 69.1655 516.231C67.1174 516.741 65.8273 517.064 64.2418 517.463Z" fill="#A94D1A"/>
</g>
<g style="mix-blend-mode:multiply">
<path d="M50.566 520.988C51.9164 524.936 55.9013 522.504 57.8231 525.768C58.2007 523.879 58.3364 523.202 58.5486 522.133C57.3336 522.22 56.4003 522.288 55.331 522.366C54.0821 521.444 53.2568 518.802 50.5564 520.988L50.566 520.988Z" fill="#A94D1A"/>
</g>
<g style="mix-blend-mode:multiply">
<path d="M57.5229 533.709C56.2286 534.361 54.9343 535.013 53.5204 535.715C53.9 536.487 54.3689 537.362 54.7773 538.272C55.1109 539.012 55.3648 539.785 55.8369 541.019C56.9131 538.29 57.7402 536.202 58.568 534.104C58.2196 533.972 57.8617 533.84 57.5133 533.709L57.5229 533.709Z" fill="#A94D1A"/>
</g>
<g style="mix-blend-mode:multiply">
<path d="M58.447 530.138C54.4351 527.566 51.5171 529.281 51.0179 533.803C53.8523 534.326 53.4354 531.248 54.8838 530.336C56.0679 530.276 57.2526 530.207 58.4463 530.147L58.447 530.138Z" fill="#A94D1A"/>
</g>
<g style="mix-blend-mode:multiply">
<path d="M33.6575 512.72L31.6675 511.212C29.7774 513.021 27.9603 514.758 26.1424 516.504L26.7159 517.136C28.8641 515.771 31.013 514.397 33.6582 512.71L33.6575 512.72Z" fill="#A94D1A"/>
</g>
<g style="mix-blend-mode:multiply">
<path d="M39.2865 524.948C41.8978 522.388 41.7405 520.944 38.5609 518.094C38.8235 520.628 39.0225 522.432 39.2865 524.948Z" fill="#A94D1A"/>
</g>
<g style="mix-blend-mode:multiply">
<path d="M36.3413 532.825C36.9875 530.965 37.5973 529.209 38.207 527.453C38.0003 527.235 37.8032 527.018 37.6054 526.81C36.7275 527.453 35.3769 527.946 35.0844 528.787C34.582 530.26 34.1137 532.2 36.3509 532.825L36.3413 532.825Z" fill="#A94D1A"/>
</g>
<g style="mix-blend-mode:multiply">
<path d="M32.4668 522.019C30.6333 523.445 30.9556 524.881 33.3421 526.388L33.692 522.194C33.29 522.136 32.8784 522.078 32.4764 522.02L32.4668 522.019Z" fill="#A94D1A"/>
</g>
<g style="mix-blend-mode:multiply">
<path d="M65.794 542.944C66.2673 541.875 66.7496 540.817 67.2229 539.748C67.0072 539.519 66.7923 539.281 66.5862 539.054C65.8136 539.578 64.7723 539.939 64.3424 540.672C64.0453 541.174 64.6117 542.172 64.7879 542.949C65.1267 542.945 65.4552 542.949 65.794 542.944Z" fill="#A94D1A"/>
</g>
<g style="mix-blend-mode:multiply">
<path d="M228.085 186.593L231.341 189.053L231.203 184.93L228.095 186.594L228.085 186.593Z" fill="#A94D1A"/>
</g>
<g style="mix-blend-mode:multiply">
<path d="M43.824 510.257C43.6729 511.417 43.5308 512.587 43.3797 513.747C43.8579 513.82 44.3273 513.883 44.8055 513.956C45.6138 513.608 46.4118 513.269 48.1082 512.539C46.1221 511.516 44.9287 510.898 43.7257 510.279L43.824 510.257Z" fill="#A94D1A"/>
</g>
<g style="mix-blend-mode:multiply">
<path d="M202.878 227.035L205.705 224.026L204.744 223.279C202.794 223.632 203.023 225.419 202.975 227.032L202.888 227.026L202.878 227.035Z" fill="#A94D1A"/>
</g>
<g style="mix-blend-mode:multiply">
<path d="M28.5262 505.278C28.8029 506.988 29.8718 507.722 31.7329 507.482C30.4613 506.607 29.7242 506.099 28.5262 505.278Z" fill="#A94D1A"/>
</g>
<g style="mix-blend-mode:multiply">
<path d="M19.96 508.619C19.3378 509.203 18.7163 509.777 18.0941 510.362C18.3145 510.658 18.5453 510.946 18.7657 511.242L20.9325 509.753C20.6022 509.371 20.2814 508.99 19.9504 508.618L19.96 508.619Z" fill="#A94D1A"/>
</g>
<g style="mix-blend-mode:multiply">
<path d="M62.7103 527.87C63.0824 527.133 63.4738 526.396 63.7711 525.624C63.7938 525.578 62.6856 524.985 62.6423 525.05C62.1499 525.711 61.7682 526.448 61.3589 527.164C61.8158 527.4 62.2726 527.636 62.7199 527.871L62.7103 527.87Z" fill="#A94D1A"/>
</g>
<g style="mix-blend-mode:multiply">
<path d="M58.2805 513.358C57.5185 513.061 56.7669 512.756 55.4787 512.247C55.7722 513.41 55.9313 514.021 56.2091 515.135C57.1104 514.3 57.6811 513.76 58.2606 513.231L58.2805 513.358Z" fill="#A94D1A"/>
</g>
<g style="mix-blend-mode:multiply">
<path d="M46.5753 528.21C46.7426 528.977 46.9202 529.734 47.0875 530.501L47.8393 530.4C47.8191 529.606 47.7996 528.801 47.7698 528.006L46.5753 528.21Z" fill="#A94D1A"/>
</g>
<g style="mix-blend-mode:multiply">
<path d="M23.0159 508.345C23.2753 509.041 23.534 509.747 23.7934 510.443L24.5632 510.227C24.354 509.506 24.1544 508.785 23.9458 508.054L23.0166 508.336L23.0159 508.345Z" fill="#A94D1A"/>
</g>
<g style="mix-blend-mode:multiply">
<path d="M59.6589 518.121L57.7678 518.062L57.6739 518.965C58.3157 519.05 58.9582 519.125 59.6 519.21L59.65 518.11L59.6589 518.121Z" fill="#A94D1A"/>
</g>
<g style="mix-blend-mode:multiply">
<path d="M74.2236 548.901C74.2187 550.449 74.2163 551.155 74.2138 551.861L74.8494 552.033C75.1053 551.567 75.5343 551.114 75.5682 550.643C75.5918 550.315 75.0573 549.948 74.2229 548.911L74.2236 548.901Z" fill="#A94D1A"/>
</g>
<g style="mix-blend-mode:multiply">
<path d="M52.7002 517.262C53.2102 517.299 53.7195 517.345 54.2288 517.392C54.2146 517.052 54.3385 516.539 54.1729 516.42C53.6947 516.076 53.1077 515.899 52.5552 515.646L52.7098 517.263L52.7002 517.262Z" fill="#A94D1A"/>
</g>
<g style="mix-blend-mode:multiply">
<path d="M65.8949 512.764C65.5343 512.399 65.2233 511.883 64.789 511.736C64.506 511.638 64.0481 512.089 63.1435 512.566L65.3578 513.509L65.8942 512.773L65.8949 512.764Z" fill="#A94D1A"/>
</g>
<g style="mix-blend-mode:multiply">
<path d="M222.491 200.917C222.275 200.418 222.05 199.918 221.835 199.419L221.024 199.66L221.451 201.394L222.491 200.908L222.491 200.917Z" fill="#A94D1A"/>
</g>
<g style="mix-blend-mode:multiply">
<path d="M42.9322 537.314L41.2525 536.332L40.9932 536.846C41.5944 537.092 42.1859 537.338 42.7871 537.584L42.9329 537.304L42.9322 537.314Z" fill="#A94D1A"/>
</g>
<g style="mix-blend-mode:multiply">
<path d="M13.7811 488.437L12.3384 490.345L12.5383 490.524L13.9913 488.607L13.7811 488.437Z" fill="#A94D1A"/>
</g>
<g style="mix-blend-mode:multiply">
<path d="M44.4944 527.567C44.4135 527.078 44.3676 526.774 44.3127 526.461C43.9979 526.535 43.6487 526.549 43.386 526.704C43.2746 526.773 43.2654 527.305 43.3404 527.339C43.6311 527.466 43.9782 527.482 44.4944 527.567Z" fill="#A94D1A"/>
</g>
<g style="mix-blend-mode:multiply">
<path d="M46.9154 523.483C47.3251 523.3 47.6345 523.168 47.9446 523.025C47.7372 522.682 47.5827 522.274 47.2907 522.031C47.2089 521.957 46.5777 522.26 46.5027 522.496C46.4277 522.733 46.7313 523.083 46.9154 523.483Z" fill="#A94D1A"/>
</g>
<g style="mix-blend-mode:multiply">
<path d="M20.0105 513.974L18.7902 513.054L18.4057 513.558L19.626 514.478L20.0105 513.974Z" fill="#A94D1A"/>
</g>
<g style="mix-blend-mode:multiply">
<path d="M61.7212 530.867L61.637 531.77C61.9765 531.756 62.3319 531.791 62.6392 531.687C62.7286 531.655 62.7632 531.038 62.6973 531.014C62.3955 530.905 62.0477 530.9 61.7116 530.866L61.7212 530.867Z" fill="#A94D1A"/>
</g>
<g style="mix-blend-mode:multiply">
<path d="M36.7147 515.929C36.8776 515.815 37.1746 515.72 37.1836 515.595C37.1968 515.412 37.0284 515.197 36.9364 514.997C36.7728 515.12 36.495 515.217 36.4654 515.36C36.4344 515.522 36.6219 515.738 36.705 515.928L36.7147 515.929Z" fill="#A94D1A"/>
</g>
<g style="mix-blend-mode:multiply">
<path d="M41.3465 529.247L40.9661 529.694C41.0486 529.757 41.2039 529.885 41.2142 529.876C41.3586 529.751 41.4762 529.595 41.6035 529.439L41.3465 529.247Z" fill="#A94D1A"/>
</g>
<g style="mix-blend-mode:multiply">
<path d="M66.2856 528.04C66.3771 527.844 66.4776 527.658 66.5505 527.45C66.5512 527.441 66.3547 527.349 66.2516 527.303C66.1601 527.499 66.0693 527.686 65.997 527.884C65.9956 527.904 66.1832 527.985 66.276 528.04L66.2856 528.04Z" fill="#A94D1A"/>
</g>
<g style="mix-blend-mode:multiply">
<path d="M41.5929 533.888L41.5335 534.175C41.6294 534.192 41.7515 534.249 41.8219 534.215C41.8827 534.181 41.8737 534.035 41.9 533.939L41.6026 533.889L41.5929 533.888Z" fill="#A94D1A"/>
</g>
<g style="mix-blend-mode:multiply">
<path d="M76.6423 517.416C76.3644 516.574 76.0776 515.721 75.7997 514.879L75.8973 514.866C76.1656 515.708 76.4428 516.56 76.711 517.402L76.6327 517.416L76.6423 517.416Z" fill="#A94D1A"/>
</g>
<g style="mix-blend-mode:multiply">
<path d="M246.018 51.5161L245.415 52.2273C245.497 52.3009 245.661 52.4384 245.661 52.4384C245.871 52.2117 246.072 51.9746 246.272 51.7472L246.017 51.5258L246.018 51.5161Z" fill="#A94D1A"/>
</g>
<g style="mix-blend-mode:multiply">
<path d="M26.7404 496.084C26.9843 496.324 27.2289 496.554 27.4728 496.794L28.0162 496.098L27.1414 495.619L26.7493 496.094L26.7404 496.084Z" fill="#A94D1A"/>
</g>
<g style="mix-blend-mode:multiply">
<path d="M63.9755 547.129C63.5577 546.886 63.1406 546.633 62.7228 546.39L62.5955 546.681C63.0408 546.81 63.4855 546.948 63.9308 547.077L63.9755 547.129Z" fill="#A94D1A"/>
</g>
<g style="mix-blend-mode:multiply">
<path d="M212.666 215.17C212.761 215.196 212.941 215.247 212.952 215.229C213.013 215.059 213.054 214.888 213.096 214.707C212.928 214.763 212.76 214.809 212.6 214.884C212.581 214.883 212.644 215.071 212.666 215.17Z" fill="#A94D1A"/>
</g>
<g style="mix-blend-mode:multiply">
<path d="M62.1137 538.587L61.8263 538.818L62.2461 539.167C62.284 539.044 62.37 538.924 62.3487 538.817C62.3357 538.729 62.1955 538.66 62.1137 538.587Z" fill="#A94D1A"/>
</g>
<g style="mix-blend-mode:multiply">
<path d="M76.7207 517.403C77.0139 517.898 77.3065 518.403 77.5998 518.898L77.4919 518.919C77.2082 518.425 76.9252 517.921 76.6416 517.426L76.72 517.413L76.7207 517.403Z" fill="#A94D1A"/>
</g>
<g style="mix-blend-mode:multiply">
<path d="M79.5255 553.994C79.2889 553.909 79.0625 553.815 79.3648 553.934C79.0493 553.998 79.2861 553.947 79.5228 553.897L79.5159 553.993L79.5255 553.994Z" fill="#A94D1A"/>
</g>
<g style="mix-blend-mode:multiply">
<path d="M54.5074 490.648L54.8116 490.874L54.5398 490.738L54.5074 490.648Z" fill="#A94D1A"/>
</g>
<g style="mix-blend-mode:multiply">
<path d="M47.3172 506.193L47.4933 506.312L47.5293 506.082L47.3172 506.193Z" fill="#A94D1A"/>
</g>
<g style="mix-blend-mode:multiply">
<path d="M208.339 220.092L208.199 220.412L208.25 220.105L208.339 220.092Z" fill="#A94D1A"/>
</g>
<g style="mix-blend-mode:multiply">
<path d="M63.9303 547.076L64.1148 547.119L63.9759 547.129L63.9303 547.076Z" fill="#A94D1A"/>
</g>
<g style="mix-blend-mode:multiply">
<path d="M77.6002 518.888C77.6371 519.317 77.6836 519.746 77.7206 520.174L77.6229 520.186L77.4923 518.91L77.6002 518.888Z" fill="#A94D1A"/>
</g>
<g style="mix-blend-mode:multiply">
<path d="M215.948 119.095L215.936 118.861L215.953 119.027L215.948 119.095Z" fill="#A94D1A"/>
</g>
<g style="mix-blend-mode:multiply">
<path d="M75.6066 513.666L75.8974 514.867L75.7998 514.879C75.7402 514.497 75.671 514.115 75.6113 513.734L75.6162 513.666L75.6066 513.666Z" fill="#A94D1A"/>
</g>
<g style="mix-blend-mode:multiply">
<path d="M75.6118 513.733L75.5933 513.45L75.607 513.665L75.6021 513.733L75.6118 513.733Z" fill="#A94D1A"/>
</g>
<g style="mix-blend-mode:multiply">
<path d="M226.21 88.5424L226.294 88.4978L226.21 88.5424Z" fill="#A94D1A"/>
</g>
<g style="mix-blend-mode:multiply">
<path d="M230.328 116.81L231.266 117.622L231.509 117.06L230.33 116.907L230.338 116.801L230.328 116.81Z" fill="#A94D1A"/>
</g>
<g style="mix-blend-mode:multiply">
<path d="M266.236 178.5L265.125 181.033L266.3 181.64L267.697 179.292L266.245 178.501L266.236 178.5Z" fill="#A94D1A"/>
</g>
<g style="mix-blend-mode:multiply">
<path d="M273.289 177.246C273.507 177.175 273.797 177.167 273.905 177.02C273.98 176.919 273.807 176.626 273.744 176.428C273.527 176.489 273.227 176.497 273.129 176.645C273.053 176.755 273.226 177.039 273.288 177.256L273.289 177.246Z" fill="#A94D1A"/>
</g>
<g style="mix-blend-mode:multiply">
<path d="M217.136 170.761L217.157 172.078L217.659 171.959L217.028 170.782L217.136 170.761Z" fill="#A94D1A"/>
</g>
<g style="mix-blend-mode:multiply">
<path d="M222.744 178.846L222.508 179.032L222.741 178.758L222.744 178.846Z" fill="#A94D1A"/>
</g>
<g style="mix-blend-mode:multiply">
<path d="M257.974 196.164L258.071 194.284L257.412 194.169L257.036 196.029L257.975 196.154L257.974 196.164Z" fill="#A94D1A"/>
</g>
<g style="mix-blend-mode:multiply">
<path d="M342.858 289.105C343.052 289.11 343.254 289.114 343.449 289.099C343.459 289.1 343.463 288.897 343.452 288.79C343.249 288.785 343.056 288.781 342.861 288.796C342.852 288.795 342.856 288.999 342.858 289.105Z" fill="#A94D1A"/>
</g>
<g style="mix-blend-mode:multiply">
<path d="M214.752 156.85L215.665 158.938L216.813 158.44L215.909 156.353L214.751 156.86L214.752 156.85Z" fill="#A94D1A"/>
</g>
<g style="mix-blend-mode:multiply">
<path d="M211.843 156.951L212.017 158.173C211.959 157.762 211.901 157.362 211.843 156.951Z" fill="#A94D1A"/>
</g>
</g>
</svg>
